SplineFontDB: 3.2
FontName: CharmBypass-Regular
FullName: CharmBypass Regular
FamilyName: CharmBypass
Weight: Regular
Copyright: Michael Orlitzky
Version: 1.0
ItalicAngle: 0
UnderlinePosition: -115
UnderlineWidth: 45
Ascent: 783
Descent: 217
InvalidEm: 0
LayerCount: 2
Layer: 0 0 "Back" 1
Layer: 1 0 "Fore" 0
XUID: [1021 610 -207347425 9812693]
BaseHoriz: 0
StyleMap: 0x0040
FSType: 4
OS2Version: 0
OS2_WeightWidthSlopeOnly: 1
OS2_UseTypoMetrics: 1
CreationTime: 1467219093
ModificationTime: 1698976958
PfmFamily: 17
TTFWeight: 400
TTFWidth: 5
LineGap: 0
VLineGap: 0
Panose: 2 11 5 4 2 1 1 2 1 2
OS2TypoAscent: 783
OS2TypoAOffset: 0
OS2TypoDescent: -217
OS2TypoDOffset: 0
OS2TypoLinegap: 213
OS2WinAscent: 968
OS2WinAOffset: 0
OS2WinDescent: 245
OS2WinDOffset: 0
HheadAscent: 968
HheadAOffset: 0
HheadDescent: -245
HheadDOffset: 0
OS2SubXSize: 650
OS2SubYSize: 600
OS2SubXOff: 0
OS2SubYOff: 75
OS2SupXSize: 650
OS2SupYSize: 600
OS2SupXOff: 0
OS2SupYOff: 350
OS2StrikeYSize: 50
OS2StrikeYPos: 304
OS2CapHeight: 709
OS2XHeight: 506
OS2Vendor: '    '
OS2CodePages: 00000001.00000000
OS2UnicodeRanges: a0000001.00000000.00000000.00000000
MarkAttachClasses: 1
DEI: 91125
LangName: 1033
MATH:ScriptPercentScaleDown: 80
MATH:ScriptScriptPercentScaleDown: 60
MATH:DelimitedSubFormulaMinHeight: 1500
MATH:DisplayOperatorMinHeight: 0
MATH:MathLeading: 0 
MATH:AxisHeight: 0 
MATH:AccentBaseHeight: 506 
MATH:FlattenedAccentBaseHeight: 709 
MATH:SubscriptShiftDown: 75 
MATH:SubscriptTopMax: 506 
MATH:SubscriptBaselineDropMin: 0 
MATH:SuperscriptShiftUp: 350 
MATH:SuperscriptShiftUpCramped: 0 
MATH:SuperscriptBottomMin: 506 
MATH:SuperscriptBaselineDropMax: 0 
MATH:SubSuperscriptGapMin: 180 
MATH:SuperscriptBottomMaxWithSubscript: 506 
MATH:SpaceAfterScript: 41 
MATH:UpperLimitGapMin: 0 
MATH:UpperLimitBaselineRiseMin: 0 
MATH:LowerLimitGapMin: 0 
MATH:LowerLimitBaselineDropMin: 0 
MATH:StackTopShiftUp: 0 
MATH:StackTopDisplayStyleShiftUp: 0 
MATH:StackBottomShiftDown: 0 

StartChar: hyphen
Encoding: 45 45 1
Width: 437
GlyphClass: 1
Flags: MW
LayerCount: 2
Fore
SplineSet
367 262 m 1
 70 262 l 1
 70 341 l 1
 367 341 l 1
 367 262 l 1
EndSplineSet
Validated: 1
EndChar

StartChar: slash
Encoding: 47 47 2
Width: 399
GlyphClass: 1
Flags: MW
LayerCount: 2
Fore
SplineSet
393 722 m 1
 85 -13 l 1
 17 -13 l 1
 325 722 l 1
 393 722 l 1
EndSplineSet
Validated: 1
EndChar

StartChar: zero
Encoding: 48 48 3
Width: 570
GlyphClass: 1
Flags: HMW
LayerCount: 2
Fore
SplineSet
517 348 m 0
 517 214 505 117 435 46 c 0
 401 12 354 -13 285 -13 c 0
 216 -13 169 12 135 46 c 0
 65 117 53 214 53 348 c 0
 53 482 65 580 135 651 c 0
 169 685 216 708 285 708 c 0
 354 708 401 685 435 651 c 0
 505 580 517 482 517 348 c 0
428 348 m 0
 428 354 428 360 428 366 c 0
 428 455 426 547 371 599 c 0
 351 618 322 631 285 631 c 0
 248 631 219 618 199 599 c 0
 144 547 142 455 142 366 c 0
 142 360 142 354 142 348 c 0
 142 342 142 336 142 330 c 0
 142 241 144 149 199 97 c 0
 219 78 248 65 285 65 c 0
 322 65 351 78 371 97 c 0
 426 149 428 241 428 330 c 0
 428 336 428 342 428 348 c 0
EndSplineSet
Validated: 1
EndChar

StartChar: one
Encoding: 49 49 4
Width: 570
GlyphClass: 1
Flags: MW
LayerCount: 2
Fore
SplineSet
373 0 m 1
 286 0 l 1
 286 598 l 1
 121 477 l 1
 121 572 l 1
 291 695 l 1
 373 695 l 1
 373 0 l 1
EndSplineSet
Validated: 1
EndChar

StartChar: two
Encoding: 50 50 5
Width: 570
GlyphClass: 1
Flags: MW
LayerCount: 2
Fore
SplineSet
494 0 m 1
 77 0 l 1
 77 73 l 1
 358 420 l 2
 384 453 396 484 396 520 c 0
 396 591 355 632 282 632 c 0
 220 632 164 598 164 506 c 1
 76 506 l 1
 76 627 158 708 281 708 c 0
 357 708 416 678 451 629 c 0
 472 599 483 565 483 521 c 0
 483 466 462 420 424 373 c 2
 188 80 l 1
 494 80 l 1
 494 0 l 1
EndSplineSet
Validated: 1
EndChar

StartChar: three
Encoding: 51 51 6
Width: 570
GlyphClass: 1
Flags: MW
LayerCount: 2
Fore
SplineSet
499 190 m 0
 499 136 480 86 446 50 c 0
 409 11 356 -13 278 -13 c 0
 211 -13 158 11 119 50 c 0
 83 86 61 135 60 199 c 1
 147 199 l 1
 149 160 160 127 183 103 c 0
 204 80 234 64 278 64 c 0
 320 64 355 77 379 104 c 0
 398 125 412 154 412 192 c 0
 412 277 354 321 269 321 c 2
 227 321 l 1
 227 400 l 1
 269 400 l 2
 349 400 397 444 397 517 c 0
 397 549 386 577 364 598 c 0
 345 617 317 632 279 632 c 0
 241 632 215 621 194 604 c 0
 167 582 153 548 152 506 c 1
 65 506 l 1
 66 575 91 625 132 659 c 0
 171 691 221 708 281 708 c 0
 339 708 392 688 429 653 c 0
 464 621 485 577 485 517 c 0
 485 452 440 384 383 360 c 1
 457 335 499 262 499 190 c 0
EndSplineSet
Validated: 1
EndChar

StartChar: four
Encoding: 52 52 7
Width: 570
GlyphClass: 1
Flags: MW
LayerCount: 2
Fore
SplineSet
534 148 m 1
 440 148 l 1
 440 0 l 1
 354 0 l 1
 354 148 l 1
 35 148 l 1
 35 237 l 1
 299 695 l 1
 389 695 l 1
 117 225 l 1
 354 225 l 1
 354 432 l 1
 440 432 l 1
 440 225 l 1
 534 225 l 1
 534 148 l 1
EndSplineSet
Validated: 1
EndChar

StartChar: five
Encoding: 53 53 8
Width: 570
GlyphClass: 1
Flags: MW
LayerCount: 2
Fore
SplineSet
515 229 m 0
 515 156 496 95 457 52 c 0
 421 12 368 -14 295 -14 c 0
 227 -14 172 9 134 46 c 0
 95 84 73 136 70 200 c 1
 155 200 l 1
 157 156 171 124 194 101 c 0
 217 78 250 64 294 64 c 0
 342 64 374 82 395 109 c 0
 418 138 429 178 429 225 c 0
 429 273 416 315 390 344 c 0
 368 368 338 383 294 383 c 0
 247 383 203 362 179 322 c 1
 84 322 l 1
 103 695 l 1
 487 695 l 1
 487 618 l 1
 176 618 l 1
 165 396 l 1
 196 441 252 459 311 459 c 0
 372 459 419 437 453 402 c 0
 494 360 515 298 515 229 c 0
EndSplineSet
Validated: 1
EndChar

StartChar: six
Encoding: 54 54 9
Width: 570
GlyphClass: 1
Flags: MW
LayerCount: 2
Fore
SplineSet
520 224 m 0
 520 154 496 97 457 54 c 0
 420 14 365 -13 293 -13 c 0
 215 -13 157 26 123 73 c 0
 73 142 64 239 64 338 c 0
 64 437 69 540 116 615 c 0
 149 667 209 708 297 708 c 0
 356 708 406 687 441 652 c 0
 472 621 495 578 497 527 c 1
 411 527 l 1
 409 561 393 587 372 605 c 0
 352 622 327 632 294 632 c 0
 250 632 220 614 199 590 c 0
 155 540 151 450 150 377 c 1
 172 425 238 458 304 458 c 0
 367 458 417 436 450 404 c 0
 495 361 520 297 520 224 c 0
434 223 m 0
 434 272 419 313 393 342 c 0
 372 366 339 382 295 382 c 0
 251 382 219 364 198 340 c 0
 172 311 159 272 159 223 c 0
 159 174 173 135 200 106 c 0
 222 82 253 64 297 64 c 0
 341 64 371 80 393 104 c 0
 420 133 434 174 434 223 c 0
EndSplineSet
Validated: 1
EndChar

StartChar: seven
Encoding: 55 55 10
Width: 570
GlyphClass: 1
Flags: MW
LayerCount: 2
Fore
SplineSet
501 618 m 1
 214 0 l 1
 122 0 l 1
 411 618 l 1
 55 618 l 1
 55 695 l 1
 501 695 l 1
 501 618 l 1
EndSplineSet
Validated: 1
EndChar

StartChar: eight
Encoding: 56 56 11
Width: 570
GlyphClass: 1
Flags: MW
LayerCount: 2
Fore
SplineSet
510 191 m 0
 510 138 492 96 464 63 c 0
 423 14 358 -13 285 -13 c 0
 212 -13 147 14 106 63 c 0
 78 96 60 138 60 191 c 0
 60 267 105 333 169 362 c 1
 112 392 74 452 74 519 c 0
 74 576 97 621 131 653 c 0
 170 689 224 708 285 708 c 0
 346 708 400 689 439 653 c 0
 473 621 496 576 496 519 c 0
 496 452 458 392 401 362 c 1
 465 333 510 267 510 191 c 0
410 519 m 0
 410 590 354 634 285 634 c 0
 216 634 160 590 160 519 c 0
 160 455 205 399 285 399 c 0
 365 399 410 455 410 519 c 0
424 195 m 0
 424 269 373 325 285 325 c 0
 197 325 146 269 146 195 c 0
 146 113 204 62 285 62 c 0
 366 62 424 113 424 195 c 0
EndSplineSet
Validated: 1
EndChar

StartChar: nine
Encoding: 57 57 12
Width: 570
GlyphClass: 1
Flags: MW
LayerCount: 2
Fore
SplineSet
510 358 m 0
 510 259 505 156 458 81 c 0
 425 29 365 -13 277 -13 c 0
 218 -13 168 8 133 44 c 0
 102 75 79 118 77 169 c 1
 163 169 l 1
 165 135 181 109 202 91 c 0
 222 73 247 64 280 64 c 0
 324 64 354 82 375 106 c 0
 419 156 423 246 424 319 c 1
 402 271 336 238 270 238 c 0
 207 238 157 260 124 292 c 0
 79 335 54 398 54 472 c 0
 54 542 78 599 117 642 c 0
 154 682 209 708 281 708 c 0
 359 708 417 669 451 623 c 0
 501 554 510 456 510 358 c 0
415 473 m 0
 415 522 401 561 374 590 c 0
 352 614 321 632 277 632 c 0
 233 632 203 616 181 592 c 0
 154 563 140 522 140 473 c 0
 140 424 155 383 181 354 c 0
 202 330 235 314 279 314 c 0
 323 314 355 332 376 356 c 0
 402 385 415 424 415 473 c 0
EndSplineSet
Validated: 1
EndChar

StartChar: colon
Encoding: 58 58 13
Width: 304
GlyphClass: 1
Flags: MW
LayerCount: 2
Fore
SplineSet
216 395 m 1
 106 395 l 1
 106 506 l 1
 216 506 l 1
 216 395 l 1
216 -1 m 1
 106 -1 l 1
 106 109 l 1
 216 109 l 1
 216 -1 l 1
EndSplineSet
Validated: 1
EndChar

StartChar: A
Encoding: 65 65 14
Width: 621
GlyphClass: 1
Flags: MW
LayerCount: 2
Fore
SplineSet
613 0 m 1
 521 0 l 1
 463 168 l 1
 155 168 l 1
 98 0 l 1
 8 0 l 1
 258 709 l 1
 362 709 l 1
 613 0 l 1
434 252 m 1
 308 620 l 1
 183 252 l 1
 434 252 l 1
EndSplineSet
Validated: 1
EndChar

StartChar: B
Encoding: 66 66 15
Width: 668
GlyphClass: 1
Flags: MW
LayerCount: 2
Fore
SplineSet
618 198 m 0
 618 141 595 98 564 65 c 0
 524 22 456 0 386 0 c 2
 100 0 l 1
 100 709 l 1
 383 709 l 2
 449 709 517 687 556 644 c 0
 584 613 602 577 602 526 c 0
 602 458 566 393 500 369 c 1
 573 345 618 273 618 198 c 0
511 519 m 0
 511 593 451 630 383 630 c 2
 187 630 l 1
 187 407 l 1
 386 407 l 2
 460 407 511 440 511 519 c 0
527 204 m 0
 527 283 463 329 388 329 c 2
 187 329 l 1
 187 82 l 1
 386 82 l 2
 464 82 527 120 527 204 c 0
EndSplineSet
Validated: 1
EndChar

StartChar: C
Encoding: 67 67 16
Width: 634
GlyphClass: 1
Flags: MW
LayerCount: 2
Fore
SplineSet
594 226 m 1
 591 160 565 104 524 62 c 0
 481 19 411 -14 334 -14 c 0
 263 -14 193 12 142 62 c 0
 65 137 53 241 53 354 c 0
 53 467 65 571 142 646 c 0
 193 696 263 722 334 722 c 0
 411 722 480 692 523 649 c 0
 564 607 590 553 593 487 c 1
 501 487 l 1
 500 526 485 560 462 586 c 0
 434 617 388 638 334 638 c 0
 286 638 239 619 205 584 c 0
 147 524 145 428 145 354 c 0
 145 280 147 184 205 124 c 0
 239 89 286 70 334 70 c 0
 388 70 435 93 463 124 c 0
 486 150 501 187 502 226 c 1
 594 226 l 1
EndSplineSet
Validated: 1
EndChar

StartChar: D
Encoding: 68 68 17
Width: 677
GlyphClass: 1
Flags: MW
LayerCount: 2
Fore
SplineSet
624 355 m 0
 624 253 610 145 533 71 c 0
 483 23 416 0 347 0 c 2
 100 0 l 1
 100 709 l 1
 347 709 l 2
 416 709 483 685 533 637 c 0
 611 563 624 457 624 355 c 0
534 355 m 0
 534 431 529 520 473 578 c 0
 440 611 393 627 347 627 c 2
 189 627 l 1
 189 82 l 1
 347 82 l 2
 393 82 440 98 473 131 c 0
 529 188 534 279 534 355 c 0
EndSplineSet
Validated: 1
EndChar

StartChar: E
Encoding: 69 69 18
Width: 625
GlyphClass: 1
Flags: MW
LayerCount: 2
Fore
SplineSet
574 0 m 1
 100 0 l 1
 100 709 l 1
 574 709 l 1
 574 627 l 1
 189 627 l 1
 189 411 l 1
 527 411 l 1
 527 327 l 1
 189 327 l 1
 189 82 l 1
 574 82 l 1
 574 0 l 1
EndSplineSet
Validated: 1
EndChar

StartChar: F
Encoding: 70 70 19
Width: 587
GlyphClass: 1
Flags: MW
LayerCount: 2
Fore
SplineSet
559 627 m 1
 189 627 l 1
 189 396 l 1
 519 396 l 1
 519 312 l 1
 189 312 l 1
 189 0 l 1
 100 0 l 1
 100 709 l 1
 559 709 l 1
 559 627 l 1
EndSplineSet
Validated: 1
EndChar

StartChar: G
Encoding: 71 71 20
Width: 680
GlyphClass: 1
Flags: MW
LayerCount: 2
Fore
SplineSet
606 0 m 1
 544 0 l 1
 529 85 l 1
 494 27 416 -14 336 -14 c 0
 265 -14 196 9 145 59 c 0
 73 129 53 227 53 354 c 0
 53 467 68 571 145 646 c 0
 196 696 265 722 336 722 c 0
 416 722 490 694 539 642 c 0
 573 606 597 561 600 504 c 1
 507 504 l 1
 504 537 493 560 475 582 c 0
 443 620 394 638 336 638 c 0
 288 638 241 619 207 584 c 0
 149 524 145 428 145 354 c 0
 145 283 150 181 209 121 c 0
 243 86 288 70 336 70 c 0
 386 70 433 87 465 119 c 0
 512 165 526 234 526 299 c 1
 336 299 l 1
 336 382 l 1
 606 382 l 1
 606 0 l 1
EndSplineSet
Validated: 1
EndChar

StartChar: H
Encoding: 72 72 21
Width: 718
GlyphClass: 1
Flags: MW
LayerCount: 2
Fore
SplineSet
618 0 m 1
 529 0 l 1
 529 327 l 1
 189 327 l 1
 189 0 l 1
 100 0 l 1
 100 709 l 1
 189 709 l 1
 189 413 l 1
 529 413 l 1
 529 709 l 1
 618 709 l 1
 618 0 l 1
EndSplineSet
Validated: 1
EndChar

StartChar: I
Encoding: 73 73 22
Width: 291
GlyphClass: 1
Flags: MW
LayerCount: 2
Fore
SplineSet
191 0 m 1
 100 0 l 1
 100 709 l 1
 191 709 l 1
 191 0 l 1
EndSplineSet
Validated: 1
EndChar

StartChar: J
Encoding: 74 74 23
Width: 493
GlyphClass: 1
Flags: MW
LayerCount: 2
Fore
SplineSet
413 198 m 2
 413 71 341 -13 213 -13 c 0
 148 -13 100 11 65 47 c 0
 24 89 8 143 8 215 c 1
 98 215 l 1
 98 166 105 127 135 99 c 0
 154 81 179 70 213 70 c 0
 294 70 324 120 324 198 c 2
 324 709 l 1
 413 709 l 1
 413 198 l 2
EndSplineSet
Validated: 1
EndChar

StartChar: K
Encoding: 75 75 24
Width: 662
GlyphClass: 1
Flags: MW
LayerCount: 2
Fore
SplineSet
649 0 m 1
 545 0 l 1
 333 368 l 1
 189 200 l 1
 189 0 l 1
 100 0 l 1
 100 709 l 1
 189 709 l 1
 189 331 l 1
 514 709 l 1
 625 709 l 1
 394 439 l 1
 649 0 l 1
EndSplineSet
Validated: 1
EndChar

StartChar: L
Encoding: 76 76 25
Width: 544
GlyphClass: 1
Flags: MW
LayerCount: 2
Fore
SplineSet
530 0 m 1
 100 0 l 1
 100 709 l 1
 189 709 l 1
 189 83 l 1
 530 83 l 1
 530 0 l 1
EndSplineSet
Validated: 1
EndChar

StartChar: M
Encoding: 77 77 26
Width: 880
GlyphClass: 1
Flags: MW
LayerCount: 2
Fore
SplineSet
780 0 m 1
 695 0 l 1
 695 598 l 1
 475 10 l 1
 405 10 l 1
 185 603 l 1
 185 0 l 1
 100 0 l 1
 100 709 l 1
 228 709 l 1
 442 132 l 1
 655 709 l 1
 780 709 l 1
 780 0 l 1
EndSplineSet
Validated: 1
EndChar

StartChar: N
Encoding: 78 78 27
Width: 734
GlyphClass: 1
Flags: MW
LayerCount: 2
Fore
SplineSet
634 0 m 1
 534 0 l 1
 186 570 l 1
 186 0 l 1
 100 0 l 1
 100 709 l 1
 200 709 l 1
 548 137 l 1
 548 709 l 1
 634 709 l 1
 634 0 l 1
EndSplineSet
Validated: 1
EndChar

StartChar: O
Encoding: 79 79 28
Width: 670
GlyphClass: 1
Flags: MW
LayerCount: 2
Fore
SplineSet
617 354 m 0
 617 241 603 137 526 62 c 0
 475 12 406 -14 335 -14 c 0
 264 -14 195 12 144 62 c 0
 67 137 53 241 53 354 c 0
 53 467 67 571 144 646 c 0
 195 696 264 722 335 722 c 0
 406 722 475 696 526 646 c 0
 603 571 617 467 617 354 c 0
525 354 m 0
 525 428 522 524 464 584 c 0
 430 619 383 637 335 637 c 0
 287 637 240 619 206 584 c 0
 148 524 145 428 145 354 c 0
 145 280 148 184 206 124 c 0
 240 89 287 71 335 71 c 0
 383 71 430 89 464 124 c 0
 522 184 525 280 525 354 c 0
EndSplineSet
Validated: 1
EndChar

StartChar: P
Encoding: 80 80 29
Width: 627
GlyphClass: 1
Flags: MW
LayerCount: 2
Fore
SplineSet
597 495 m 0
 597 426 576 372 538 334 c 0
 500 296 442 275 364 275 c 2
 189 275 l 1
 189 0 l 1
 100 0 l 1
 100 709 l 1
 363 709 l 2
 446 709 505 686 543 645 c 0
 577 608 597 557 597 495 c 0
505 495 m 0
 505 585 449 628 361 628 c 2
 189 628 l 1
 189 356 l 1
 362 356 l 2
 457 356 505 400 505 495 c 0
EndSplineSet
Validated: 1
EndChar

StartChar: Q
Encoding: 81 81 30
Width: 670
GlyphClass: 1
Flags: MW
LayerCount: 2
Fore
SplineSet
617 354 m 0
 617 241 603 138 527 63 c 1
 591 -20 l 1
 532 -66 l 1
 467 18 l 1
 426 -3 381 -14 335 -14 c 0
 264 -14 195 12 144 62 c 0
 67 137 53 241 53 354 c 0
 53 467 67 571 144 646 c 0
 195 696 264 722 335 722 c 0
 406 722 475 696 526 646 c 0
 603 571 617 467 617 354 c 0
525 354 m 0
 525 428 522 524 464 584 c 0
 430 619 383 637 335 637 c 0
 287 637 240 619 206 584 c 0
 148 524 145 428 145 354 c 0
 145 280 148 184 206 124 c 0
 240 89 287 71 335 71 c 0
 362 71 388 77 413 88 c 1
 329 196 l 1
 387 241 l 1
 472 133 l 1
 522 193 525 283 525 354 c 0
EndSplineSet
Validated: 1
EndChar

StartChar: R
Encoding: 82 82 31
Width: 662
GlyphClass: 1
Flags: MW
LayerCount: 2
Fore
SplineSet
617 0 m 1
 519 0 l 1
 385 295 l 1
 189 295 l 1
 189 0 l 1
 100 0 l 1
 100 709 l 1
 378 709 l 2
 461 709 519 686 558 646 c 0
 592 610 614 564 614 502 c 0
 614 440 594 398 560 362 c 0
 539 340 509 323 475 312 c 1
 617 0 l 1
522 502 m 0
 522 592 462 627 378 627 c 2
 189 627 l 1
 189 378 l 1
 378 378 l 2
 462 378 522 412 522 502 c 0
EndSplineSet
Validated: 1
EndChar

StartChar: S
Encoding: 83 83 32
Width: 635
GlyphClass: 1
Flags: MW
LayerCount: 2
Fore
SplineSet
585 195 m 0
 585 136 560 92 525 58 c 0
 476 10 400 -13 324 -13 c 0
 238 -13 169 11 121 55 c 0
 76 97 45 158 45 225 c 1
 138 225 l 1
 138 183 159 141 188 113 c 0
 220 82 274 69 324 69 c 0
 378 69 424 80 456 110 c 0
 478 130 492 155 492 193 c 0
 492 248 457 294 373 307 c 2
 261 324 l 2
 155 340 72 399 72 512 c 0
 72 565 96 616 134 652 c 0
 183 698 246 722 320 722 c 0
 389 722 457 699 504 654 c 0
 547 613 570 562 572 502 c 1
 479 502 l 1
 477 537 464 568 444 591 c 0
 417 622 374 640 319 640 c 0
 268 640 224 626 193 591 c 0
 175 570 164 546 164 514 c 0
 164 450 217 421 270 414 c 0
 310 409 349 402 388 396 c 0
 506 379 585 307 585 195 c 0
EndSplineSet
Validated: 1
EndChar

StartChar: T
Encoding: 84 84 33
Width: 538
GlyphClass: 1
Flags: MW
LayerCount: 2
Fore
SplineSet
525 626 m 1
 314 626 l 1
 314 0 l 1
 224 0 l 1
 224 626 l 1
 13 626 l 1
 13 709 l 1
 525 709 l 1
 525 626 l 1
EndSplineSet
Validated: 1
EndChar

StartChar: U
Encoding: 85 85 34
Width: 678
GlyphClass: 1
Flags: MW
LayerCount: 2
Fore
SplineSet
598 260 m 2
 598 83 498 -13 339 -13 c 0
 180 -13 80 83 80 260 c 2
 80 709 l 1
 169 709 l 1
 169 258 l 2
 169 145 216 70 339 70 c 0
 462 70 509 145 509 258 c 2
 509 709 l 1
 598 709 l 1
 598 260 l 2
EndSplineSet
Validated: 1
EndChar

StartChar: V
Encoding: 86 86 35
Width: 579
GlyphClass: 1
Flags: MW
LayerCount: 2
Fore
SplineSet
575 709 m 1
 336 0 l 1
 243 0 l 1
 4 709 l 1
 96 709 l 1
 292 110 l 1
 484 709 l 1
 575 709 l 1
EndSplineSet
Validated: 1
EndChar

StartChar: W
Encoding: 87 87 36
Width: 862
GlyphClass: 1
Flags: MW
LayerCount: 2
Fore
SplineSet
830 709 m 1
 689 0 l 1
 594 0 l 1
 432 571 l 1
 268 0 l 1
 174 0 l 1
 32 709 l 1
 115 709 l 1
 228 131 l 1
 392 699 l 1
 472 699 l 1
 636 132 l 1
 749 709 l 1
 830 709 l 1
EndSplineSet
Validated: 1
EndChar

StartChar: X
Encoding: 88 88 37
Width: 584
GlyphClass: 1
Flags: MW
LayerCount: 2
Fore
SplineSet
569 0 m 1
 470 0 l 1
 290 291 l 1
 112 0 l 1
 15 0 l 1
 239 358 l 1
 19 709 l 1
 118 709 l 1
 296 422 l 1
 471 709 l 1
 566 709 l 1
 345 358 l 1
 569 0 l 1
EndSplineSet
Validated: 1
EndChar

StartChar: Y
Encoding: 89 89 38
Width: 566
GlyphClass: 1
Flags: MW
LayerCount: 2
Fore
SplineSet
566 709 m 1
 328 288 l 1
 328 0 l 1
 238 0 l 1
 238 288 l 1
 0 709 l 1
 100 709 l 1
 286 372 l 1
 471 709 l 1
 566 709 l 1
EndSplineSet
Validated: 1
EndChar

StartChar: Z
Encoding: 90 90 39
Width: 612
GlyphClass: 1
Flags: MW
LayerCount: 2
Fore
SplineSet
566 0 m 1
 43 0 l 1
 43 89 l 1
 456 626 l 1
 47 626 l 1
 47 709 l 1
 562 709 l 1
 562 619 l 1
 148 83 l 1
 566 83 l 1
 566 0 l 1
EndSplineSet
Validated: 1
EndChar

StartChar: myA
Encoding: 97 97 40
Width: 552
GlyphClass: 1
Flags: MW
LayerCount: 2
Fore
SplineSet
225 -14 m 0
 107 -14 49 61 49 142 c 0
 49 207 92 288 231 299 c 2
 385 311 l 1
 385 336 l 2
 385 411 346 450 270 450 c 0
 200 450 153 410 151 352 c 1
 68 352 l 1
 70 457 167 519 271 519 c 0
 392 519 469 455 469 331 c 2
 469 119 l 2
 469 102 469 33 479 0 c 1
 396 0 l 1
 390 25 390 58 390 72 c 1
 359 16 296 -14 225 -14 c 0
238 57 m 0
 330 57 385 127 385 214 c 2
 385 245 l 1
 249 234 l 2
 198 230 136 208 136 144 c 0
 136 98 166 57 238 57 c 0
EndSplineSet
Validated: 1
EndChar

StartChar: b
Encoding: 98 98 41
Width: 595
GlyphClass: 1
Flags: MW
LayerCount: 2
Fore
SplineSet
541 252 m 0
 541 168 516 91 468 42 c 0
 435 8 387 -13 325 -13 c 0
 268 -13 203 15 174 66 c 1
 168 0 l 1
 93 0 l 1
 93 722 l 1
 178 722 l 1
 178 447 l 1
 205 493 270 519 325 519 c 0
 384 519 431 499 464 468 c 0
 515 419 541 339 541 252 c 0
454 253 m 0
 454 346 424 447 311 447 c 0
 274 447 249 432 229 414 c 0
 187 377 173 316 173 253 c 0
 173 190 187 129 229 92 c 0
 249 74 274 59 311 59 c 0
 424 59 454 160 454 253 c 0
EndSplineSet
Validated: 1
EndChar

StartChar: c
Encoding: 99 99 42
Width: 532
GlyphClass: 1
Flags: MW
LayerCount: 2
Fore
SplineSet
486 170 m 1
 482 116 461 75 427 42 c 0
 391 7 343 -13 281 -13 c 0
 190 -13 132 29 96 82 c 0
 69 122 54 177 54 253 c 0
 54 329 69 384 96 424 c 0
 132 477 189 519 280 519 c 0
 340 519 389 499 424 465 c 0
 458 432 480 390 484 335 c 1
 398 335 l 1
 394 370 381 395 362 414 c 0
 342 433 313 445 280 445 c 0
 241 445 214 431 192 412 c 0
 152 378 141 315 141 253 c 0
 141 191 152 128 192 94 c 0
 214 75 241 61 280 61 c 0
 315 61 346 74 366 95 c 0
 384 114 396 137 400 170 c 1
 486 170 l 1
EndSplineSet
Validated: 1
EndChar

StartChar: d
Encoding: 100 100 43
Width: 595
GlyphClass: 1
Flags: MW
LayerCount: 2
Fore
SplineSet
502 0 m 1
 427 0 l 1
 421 66 l 1
 392 15 327 -13 270 -13 c 0
 208 -13 160 8 127 42 c 0
 79 91 54 168 54 252 c 0
 54 339 80 419 131 468 c 0
 164 499 211 519 270 519 c 0
 325 519 390 493 417 447 c 1
 417 722 l 1
 502 722 l 1
 502 0 l 1
422 253 m 0
 422 316 408 377 366 414 c 0
 346 432 321 447 284 447 c 0
 171 447 141 346 141 253 c 0
 141 160 171 59 284 59 c 0
 321 59 346 74 366 92 c 0
 408 129 422 190 422 253 c 0
EndSplineSet
Validated: 1
EndChar

StartChar: e
Encoding: 101 101 44
Width: 551
GlyphClass: 1
Flags: HMW
LayerCount: 2
Fore
SplineSet
501 276 m 2
 500 225 l 1
 142 225 l 1
 142 179 160 129 191 98 c 0
 214 75 245 62 284 62 c 0
 324 62 357 73 378 95 c 0
 392 109 401 123 408 150 c 1
 491 150 l 1
 484 100 454 53 413 25 c 0
 377 1 332 -13 284 -13 c 0
 213 -13 155 17 116 63 c 0
 74 112 53 179 53 251 c 0
 53 312 64 366 92 413 c 0
 128 474 195 519 283 519 c 0
 348 519 400 494 437 454 c 0
 477 410 501 347 501 280 c 0
 501 279 501 277 501 276 c 2
414 298 m 1
 414 336 403 374 383 401 c 0
 362 429 328 447 283 447 c 0
 191 447 146 372 144 298 c 1
 414 298 l 1
EndSplineSet
Validated: 1
EndChar

StartChar: f
Encoding: 102 102 45
Width: 366
GlyphClass: 1
Flags: MW
LayerCount: 2
Fore
SplineSet
361 652 m 1
 334 655 313 660 277 660 c 0
 232 660 205 632 205 591 c 2
 205 506 l 1
 351 506 l 1
 351 434 l 1
 205 434 l 1
 205 0 l 1
 120 0 l 1
 120 434 l 1
 28 434 l 1
 28 506 l 1
 120 506 l 1
 120 596 l 2
 120 672 179 732 267 732 c 0
 302 732 333 728 361 723 c 1
 361 652 l 1
EndSplineSet
Validated: 1
EndChar

StartChar: g
Encoding: 103 103 46
Width: 597
GlyphClass: 1
Flags: MW
LayerCount: 2
Fore
SplineSet
283 -230 m 0
 157 -230 66 -161 60 -51 c 1
 146 -51 l 1
 150 -116 197 -157 280 -157 c 0
 366 -157 430 -108 430 14 c 2
 430 78 l 1
 405 29 335 3 277 3 c 0
 127 3 53 124 53 262 c 0
 53 398 127 519 278 519 c 0
 342 519 401 493 429 440 c 1
 435 506 l 1
 510 506 l 1
 510 -6 l 2
 510 -141 418 -230 283 -230 c 0
287 75 m 0
 393 75 429 171 429 261 c 0
 429 350 393 447 287 447 c 0
 179 447 140 354 140 261 c 0
 140 168 178 75 287 75 c 0
EndSplineSet
Validated: 1
EndChar

StartChar: h
Encoding: 104 104 47
Width: 587
GlyphClass: 1
Flags: MW
LayerCount: 2
Fore
SplineSet
502 0 m 1
 417 0 l 1
 417 321 l 2
 417 397 386 442 306 442 c 0
 257 442 218 410 196 364 c 0
 179 327 178 274 178 235 c 2
 178 0 l 1
 93 0 l 1
 93 722 l 1
 178 722 l 1
 178 439 l 1
 208 491 269 519 326 519 c 0
 441 519 502 450 502 333 c 2
 502 0 l 1
EndSplineSet
Validated: 1
EndChar

StartChar: i
Encoding: 105 105 48
Width: 273
GlyphClass: 1
Flags: MW
LayerCount: 2
Fore
SplineSet
186 622 m 1
 87 622 l 1
 87 722 l 1
 186 722 l 1
 186 622 l 1
180 0 m 1
 93 0 l 1
 93 506 l 1
 180 506 l 1
 180 0 l 1
EndSplineSet
Validated: 1
EndChar

StartChar: j
Encoding: 106 106 49
Width: 283
GlyphClass: 1
Flags: MW
LayerCount: 2
Fore
SplineSet
196 622 m 1
 97 622 l 1
 97 722 l 1
 196 722 l 1
 196 622 l 1
190 -71 m 2
 190 -159 147 -214 51 -214 c 0
 25 -214 10 -212 -15 -204 c 1
 -15 -131 l 1
 6 -135 27 -136 48 -136 c 0
 86 -136 105 -106 105 -72 c 2
 105 506 l 1
 190 506 l 1
 190 -71 l 2
EndSplineSet
Validated: 1
EndChar

StartChar: k
Encoding: 107 107 50
Width: 545
GlyphClass: 1
Flags: MW
LayerCount: 2
Fore
SplineSet
529 0 m 1
 433 0 l 1
 275 244 l 1
 178 136 l 1
 178 0 l 1
 93 0 l 1
 93 722 l 1
 178 722 l 1
 178 251 l 1
 407 506 l 1
 510 506 l 1
 330 306 l 1
 529 0 l 1
EndSplineSet
Validated: 1
EndChar

StartChar: l
Encoding: 108 108 51
Width: 291
GlyphClass: 1
Flags: MW
LayerCount: 2
Fore
SplineSet
256 0 m 1
 256 0 237 -6 196 -6 c 0
 122 -6 90 38 90 118 c 2
 90 722 l 1
 175 722 l 1
 175 123 l 2
 175 89 186 71 221 71 c 0
 249 71 256 72 256 72 c 1
 256 0 l 1
EndSplineSet
Validated: 1
EndChar

StartChar: m
Encoding: 109 109 52
Width: 878
GlyphClass: 1
Flags: MW
LayerCount: 2
Fore
SplineSet
793 0 m 1
 708 0 l 1
 708 322 l 2
 708 393 685 442 605 442 c 0
 573 442 548 429 528 408 c 0
 494 373 485 322 485 269 c 2
 485 0 l 1
 400 0 l 1
 400 322 l 2
 400 393 379 442 298 442 c 0
 262 442 233 424 212 397 c 0
 187 365 178 311 178 269 c 2
 178 0 l 1
 93 0 l 1
 93 506 l 1
 167 506 l 1
 175 434 l 1
 202 491 260 519 317 519 c 0
 392 519 446 485 468 423 c 1
 495 486 560 519 624 519 c 0
 739 519 793 445 793 333 c 2
 793 0 l 1
EndSplineSet
Validated: 1
EndChar

StartChar: n
Encoding: 110 110 53
Width: 585
GlyphClass: 1
Flags: MW
LayerCount: 2
Fore
SplineSet
502 0 m 1
 417 0 l 1
 417 321 l 2
 417 397 386 442 306 442 c 0
 257 442 218 410 196 364 c 0
 179 327 178 274 178 235 c 2
 178 0 l 1
 93 0 l 1
 93 506 l 1
 167 506 l 1
 174 430 l 1
 200 488 270 519 327 519 c 0
 442 519 502 450 502 333 c 2
 502 0 l 1
EndSplineSet
Validated: 1
EndChar

StartChar: o
Encoding: 111 111 54
Width: 558
GlyphClass: 1
Flags: MW
LayerCount: 2
Fore
SplineSet
504 253 m 0
 504 173 487 100 432 46 c 0
 395 10 343 -13 279 -13 c 0
 215 -13 163 10 126 46 c 0
 71 100 54 173 54 253 c 0
 54 333 71 406 126 460 c 0
 163 496 215 519 279 519 c 0
 343 519 395 496 432 460 c 0
 487 406 504 333 504 253 c 0
417 253 m 0
 417 312 406 373 370 410 c 0
 349 431 319 446 279 446 c 0
 239 446 209 431 188 410 c 0
 152 373 141 312 141 253 c 0
 141 194 152 133 188 96 c 0
 209 75 239 60 279 60 c 0
 319 60 349 75 370 96 c 0
 406 133 417 194 417 253 c 0
EndSplineSet
Validated: 1
EndChar

StartChar: p
Encoding: 112 112 55
Width: 595
GlyphClass: 1
Flags: MW
LayerCount: 2
Fore
SplineSet
541 253 m 0
 541 166 515 86 464 37 c 0
 431 6 384 -14 325 -14 c 0
 270 -14 205 12 178 58 c 1
 178 -217 l 1
 93 -217 l 1
 93 505 l 1
 168 505 l 1
 174 439 l 1
 203 490 268 518 325 518 c 0
 387 518 435 497 468 463 c 0
 516 414 541 337 541 253 c 0
454 252 m 0
 454 345 424 446 311 446 c 0
 274 446 249 431 229 413 c 0
 187 376 173 315 173 252 c 0
 173 189 187 128 229 91 c 0
 249 73 274 58 311 58 c 0
 424 58 454 159 454 252 c 0
EndSplineSet
Validated: 1
EndChar

StartChar: q
Encoding: 113 113 56
Width: 595
GlyphClass: 1
Flags: MW
LayerCount: 2
Fore
SplineSet
502 -217 m 1
 417 -217 l 1
 417 58 l 1
 390 12 325 -14 270 -14 c 0
 211 -14 164 6 131 37 c 0
 80 86 54 166 54 253 c 0
 54 337 79 414 127 463 c 0
 160 497 208 518 270 518 c 0
 327 518 392 490 421 439 c 1
 427 505 l 1
 502 505 l 1
 502 -217 l 1
422 252 m 0
 422 315 408 376 366 413 c 0
 346 431 321 446 284 446 c 0
 171 446 141 345 141 252 c 0
 141 159 171 58 284 58 c 0
 321 58 346 73 366 91 c 0
 408 128 422 189 422 252 c 0
EndSplineSet
Validated: 1
EndChar

StartChar: r
Encoding: 114 114 57
Width: 384
GlyphClass: 1
Flags: MW
LayerCount: 2
Fore
SplineSet
366 423 m 1
 351 426 334 427 319 427 c 0
 279 427 246 409 223 387 c 0
 182 348 177 278 177 225 c 2
 177 0 l 1
 93 0 l 1
 93 506 l 1
 168 506 l 1
 175 417 l 1
 201 479 262 509 326 509 c 0
 339 509 353 508 366 506 c 1
 366 423 l 1
EndSplineSet
Validated: 1
EndChar

StartChar: s
Encoding: 115 115 58
Width: 521
GlyphClass: 1
Flags: MW
LayerCount: 2
Fore
SplineSet
468 147 m 0
 468 103 452 69 428 44 c 0
 389 4 329 -13 263 -13 c 0
 200 -13 142 2 99 44 c 0
 68 74 50 117 50 160 c 1
 135 160 l 1
 136 125 152 99 176 81 c 0
 199 64 235 58 267 58 c 0
 302 58 334 64 360 86 c 0
 374 97 385 118 385 141 c 0
 385 179 358 206 306 213 c 2
 192 228 l 2
 116 240 68 287 68 364 c 0
 68 403 87 440 110 463 c 0
 143 497 196 519 259 519 c 0
 326 519 386 498 420 455 c 0
 442 428 456 399 456 358 c 1
 371 358 l 1
 370 384 357 408 342 421 c 0
 321 440 293 448 259 448 c 0
 239 448 224 448 200 438 c 0
 168 425 149 398 149 370 c 0
 149 328 175 310 217 304 c 0
 245 300 285 296 339 287 c 0
 411 275 468 223 468 147 c 0
EndSplineSet
Validated: 1
EndChar

StartChar: t
Encoding: 116 116 59
Width: 385
GlyphClass: 1
Flags: MW
LayerCount: 2
Fore
SplineSet
355 7 m 1
 332 1 301 -7 254 -7 c 0
 145 -7 115 62 115 130 c 2
 115 433 l 1
 17 433 l 1
 17 506 l 1
 115 506 l 1
 115 635 l 1
 200 655 l 1
 200 506 l 1
 350 506 l 1
 350 433 l 1
 200 433 l 1
 200 140 l 2
 200 91 221 71 268 71 c 0
 304 71 355 80 355 80 c 1
 355 7 l 1
EndSplineSet
Validated: 1
EndChar

StartChar: u
Encoding: 117 117 60
Width: 582
GlyphClass: 1
Flags: MW
LayerCount: 2
Fore
SplineSet
489 0 m 1
 415 0 l 1
 408 77 l 1
 382 19 317 -12 258 -12 c 0
 143 -12 85 57 85 174 c 2
 85 506 l 1
 170 506 l 1
 170 186 l 2
 170 110 198 65 278 65 c 0
 312 65 340 80 362 103 c 0
 394 136 404 191 404 243 c 2
 404 506 l 1
 489 506 l 1
 489 0 l 1
EndSplineSet
Validated: 1
EndChar

StartChar: v
Encoding: 118 118 61
Width: 486
GlyphClass: 1
Flags: MW
LayerCount: 2
Fore
SplineSet
474 506 m 1
 291 0 l 1
 199 0 l 1
 12 506 l 1
 101 506 l 1
 247 100 l 1
 388 506 l 1
 474 506 l 1
EndSplineSet
Validated: 1
EndChar

StartChar: w
Encoding: 119 119 62
Width: 767
GlyphClass: 1
Flags: MW
LayerCount: 2
Fore
SplineSet
729 506 m 1
 598 0 l 1
 516 0 l 1
 384 387 l 1
 249 0 l 1
 168 0 l 1
 38 506 l 1
 122 506 l 1
 219 124 l 1
 348 500 l 1
 421 500 l 1
 548 124 l 1
 646 506 l 1
 729 506 l 1
EndSplineSet
Validated: 1
EndChar

StartChar: x
Encoding: 120 120 63
Width: 498
GlyphClass: 1
Flags: MW
LayerCount: 2
Fore
SplineSet
481 0 m 1
 379 0 l 1
 246 199 l 1
 114 0 l 1
 17 0 l 1
 189 258 l 1
 19 506 l 1
 119 506 l 1
 251 315 l 1
 378 506 l 1
 476 506 l 1
 305 258 l 1
 481 0 l 1
EndSplineSet
Validated: 1
EndChar

StartChar: y
Encoding: 121 121 64
Width: 498
GlyphClass: 1
Flags: MW
LayerCount: 2
Fore
SplineSet
488 506 m 1
 260 -104 l 2
 236 -169 199 -212 123 -212 c 0
 81 -212 53 -204 46 -202 c 1
 46 -128 l 1
 46 -128 73 -136 106 -136 c 0
 142 -136 168 -123 182 -85 c 2
 214 0 l 1
 12 506 l 1
 108 506 l 1
 257 107 l 1
 399 506 l 1
 488 506 l 1
EndSplineSet
Validated: 1
EndChar

StartChar: z
Encoding: 122 122 65
Width: 501
GlyphClass: 1
Flags: MW
LayerCount: 2
Fore
SplineSet
453 0 m 1
 53 0 l 1
 53 75 l 1
 347 432 l 1
 53 432 l 1
 53 506 l 1
 450 506 l 1
 450 431 l 1
 157 74 l 1
 453 74 l 1
 453 0 l 1
EndSplineSet
Validated: 1
EndChar

StartChar: arrowright
Encoding: 8594 8594 66
Width: 857
Flags: MW
LayerCount: 2
Fore
SplineSet
802 305 m 1
 483 -13 l 1
 435 37 l 1
 669 269 l 1
 65 269 l 1
 65 341 l 1
 669 341 l 1
 435 573 l 1
 483 623 l 1
 802 305 l 1
EndSplineSet
EndChar
